# Blender 4.0.2
# www.blender.org
o MonitorGeneric
v -0.395000 -0.345000 0.475000
v -0.395000 0.400000 0.475000
v -0.500000 -0.500000 0.250000
v -0.500000 0.500000 0.250000
v 0.395000 -0.345000 0.475000
v 0.395000 0.400000 0.475000
v 0.500000 -0.500000 0.250000
v 0.500000 0.500000 0.250000
v -0.500000 -0.500000 0.500000
v -0.500000 0.500000 0.500000
v 0.500000 0.500000 0.500000
v 0.500000 -0.500000 0.500000
v -0.405000 -0.355000 0.500000
v -0.405000 0.410000 0.500000
v 0.405000 0.410000 0.500000
v 0.405000 -0.355000 0.500000
v -0.258194 -0.394449 0.024755
v -0.402500 0.402500 0.100000
v 0.258194 -0.394449 0.024755
v 0.402500 0.402500 0.100000
v -0.450000 0.450000 0.100000
v -0.450000 -0.450000 0.100000
v 0.450000 -0.450000 0.100000
v 0.450000 0.450000 0.100000
v -0.178572 -0.358051 -0.372584
v -0.350000 0.350000 -0.550000
v 0.178572 -0.358051 -0.372584
v 0.350000 0.350000 -0.550000
v -0.262500 -0.200000 -0.550000
v 0.262500 -0.200000 -0.550000
v -0.328125 -0.100000 -0.550000
v 0.328125 -0.100000 -0.550000
v 0.377344 -0.402500 0.100000
v -0.377344 -0.402500 0.100000
v 0.262500 -0.350000 -0.550000
v -0.262500 -0.350000 -0.550000
v 0.258194 -0.544449 0.117485
v -0.258194 -0.544449 0.117485
v 0.178572 -0.544449 -0.372584
v -0.178572 -0.544449 -0.372584
v 0.387291 -0.569449 0.337177
v -0.387291 -0.569449 0.337177
v 0.267858 -0.569449 -0.514537
v -0.267858 -0.569449 -0.514537
v 0.387291 -0.614449 0.337177
v -0.387291 -0.614449 0.337177
v 0.267858 -0.614449 -0.514537
v -0.267858 -0.614449 -0.514537
vn -1.0000 -0.0000 -0.0000
vn -0.0000 -0.9487 -0.3162
vn 1.0000 -0.0000 -0.0000
vn -0.0000 -0.0000 1.0000
vn -0.0000 -1.0000 -0.0000
vn -0.0000 1.0000 -0.0000
vn 0.9285 -0.0000 0.3714
vn -0.9285 -0.0000 0.3714
vn -0.0000 0.9285 0.3714
vn -0.0000 -0.9285 0.3714
vn -0.0000 0.9968 -0.0805
vn -0.0000 0.9487 -0.3162
vn -0.9487 -0.0000 -0.3162
vn 0.9487 -0.0000 -0.3162
vn -0.0000 -0.0000 -1.0000
vn 0.9847 -0.0000 -0.1740
vn 0.9805 -0.0000 -0.1965
vn -0.9847 -0.0000 -0.1740
vn 0.7966 -0.5228 -0.3036
vn -0.7966 -0.5228 -0.3036
vn -0.9955 -0.0311 -0.0899
vn -0.9959 -0.0484 -0.0765
vn 0.9955 -0.0311 -0.0899
vn -0.0000 -0.9943 -0.1064
vn -0.0000 -0.9990 -0.0453
vn 0.0543 -0.9960 -0.0709
vn -0.0111 -0.9960 -0.0890
vn -0.2464 0.9686 -0.0345
vn -0.9822 -0.0987 -0.1596
vn -0.0000 0.5258 0.8506
vn -0.9903 -0.0000 -0.1389
vn -0.0000 0.9936 0.1131
vn 0.2171 0.9755 -0.0353
vn -0.0000 0.9848 -0.1734
vn 0.9903 -0.0000 -0.1389
vn 0.9822 -0.0987 -0.1596
vn 0.9959 -0.0484 -0.0765
vn 0.0111 -0.9960 -0.0890
vn -0.0543 -0.9960 -0.0709
vn -0.2171 0.9755 -0.0353
vn -0.9805 -0.0000 -0.1965
vn 0.2464 0.9686 -0.0345
vt 0.324128 0.756463
vt 0.625408 0.681144
vt 0.625408 0.756463
vt 0.069564 0.868760
vt 0.021927 0.582545
vt 0.069564 0.567481
vt 0.572726 0.082936
vt 0.874006 0.007616
vt 0.874006 0.082936
vt 0.915207 0.456269
vt 0.693601 0.686739
vt 0.691888 0.450267
vt 0.144883 0.868760
vt 0.308896 0.476929
vt 0.007616 0.552248
vt 0.007616 0.476929
vt 0.685910 0.695590
vt 0.950101 0.726494
vt 0.640640 0.724762
vt 0.682773 0.442325
vt 0.949812 0.420698
vt 0.922916 0.447422
vt 0.640640 0.412756
vt 0.925360 0.700136
vt 0.916294 0.692234
vt 0.036991 0.414981
vt 0.263704 0.218512
vt 0.279521 0.414981
vt 0.293832 0.429292
vt 0.324128 0.681143
vt 0.610344 0.633507
vt 0.587790 0.130573
vt 0.353503 0.619196
vt 0.339192 0.633507
vt 0.007616 0.604435
vt 0.021927 0.853697
vt 0.007616 0.831807
vt 0.022680 0.429292
vt 0.602101 0.144883
vt 0.858942 0.130573
vt 0.844631 0.152462
vt 0.783571 0.351312
vt 0.828763 0.351323
vt 0.173440 0.665039
vt 0.216263 0.787980
vt 0.160116 0.786895
vt 0.079170 0.007616
vt 0.237342 0.052808
vt 0.079170 0.052808
vt 0.596033 0.611617
vt 0.534973 0.412768
vt 0.580165 0.412756
vt 0.747904 0.346163
vt 0.499306 0.417917
vt 0.363643 0.422352
vt 0.257113 0.082936
vt 0.052808 0.218512
vt 0.663443 0.933238
vt 0.640640 0.741726
vt 0.663445 0.777642
vt 0.783647 0.801651
vt 0.837140 0.934547
vt 0.783629 0.909221
vt 0.837147 0.776320
vt 0.640640 0.969155
vt 0.948548 0.195782
vt 0.978826 0.007616
vt 0.978826 0.266731
vt 0.324128 0.798596
vt 0.380286 0.906196
vt 0.324128 0.906196
vt 0.902562 0.169172
vt 0.945386 0.046232
vt 0.518600 0.007616
vt 0.363023 0.060746
vt 0.363023 0.007616
vt 0.992384 0.266731
vt 0.518600 0.060746
vt 0.324128 0.127362
vt 0.219426 0.638430
vt 0.249703 0.826595
vt 0.423712 0.771696
vt 0.423712 0.933096
vt 0.324128 0.140920
vt 0.521511 0.397524
vt 0.360111 0.397524
vt 0.557494 0.127362
vt 0.263261 0.567481
vt 0.263261 0.826595
vt 0.437269 0.933096
vt 0.572726 0.007616
vt 0.144883 0.567481
vt 0.308896 0.552248
vt 0.237342 0.007616
vt 0.612241 0.341727
vt 0.059399 0.082936
vt 0.380286 0.798596
vt 0.889239 0.047317
vt 0.992384 0.007616
vt 0.249704 0.567481
vt 0.557494 0.140920
vt 0.437269 0.771696
s 0
f 10/1/1 3/2/1 9/3/1
f 3/4/2 23/5/2 7/6/2
f 8/7/3 12/8/3 7/9/3
f 6/10/4 1/11/4 5/12/4
f 7/6/5 9/13/5 3/4/5
f 4/14/6 11/15/6 8/16/6
f 13/17/4 10/18/4 9/19/4
f 16/20/4 11/21/4 15/22/4
f 13/17/4 12/23/4 16/20/4
f 15/22/4 10/18/4 14/24/4
f 2/25/7 13/17/7 1/11/7
f 5/12/8 15/22/8 6/10/8
f 1/11/9 16/20/9 5/12/9
f 6/10/10 14/24/10 2/25/10
f 20/26/11 26/27/11 18/28/11
f 8/16/12 21/29/12 4/14/12
f 4/30/13 22/31/13 3/2/13
f 7/9/14 24/32/14 8/7/14
f 18/33/15 22/31/15 21/34/15
f 33/35/15 22/36/15 34/37/15
f 18/28/15 24/38/15 20/26/15
f 20/39/15 23/40/15 33/41/15
f 30/42/16 33/41/16 35/43/16
f 19/44/17 39/45/17 27/46/17
f 35/47/15 29/48/15 30/49/15
f 34/50/18 29/51/18 36/52/18
f 33/41/19 30/42/19 32/53/19
f 29/51/20 34/50/20 31/54/20
f 34/50/21 18/33/21 31/54/21
f 18/33/22 26/55/22 31/54/22
f 32/53/23 20/39/23 33/41/23
f 31/56/15 30/49/15 29/48/15
f 28/57/15 31/56/15 26/27/15
f 19/58/24 34/59/24 17/60/24
f 25/61/25 35/62/25 27/63/25
f 25/61/26 34/59/26 36/64/26
f 27/63/27 33/65/27 19/58/27
f 38/66/28 44/67/28 42/68/28
f 27/69/15 40/70/15 25/71/15
f 17/72/29 40/73/29 38/66/29
f 17/74/30 37/75/30 19/76/30
f 44/67/31 46/77/31 42/68/31
f 38/78/32 41/79/32 37/75/32
f 37/80/33 43/81/33 39/45/33
f 40/70/34 43/82/34 44/83/34
f 45/84/5 48/85/5 47/86/5
f 42/87/4 45/84/4 41/79/4
f 43/81/35 45/88/35 47/89/35
f 43/82/15 48/90/15 44/83/15
f 10/1/1 4/30/1 3/2/1
f 3/4/2 22/36/2 23/5/2
f 8/7/3 11/91/3 12/8/3
f 6/10/4 2/25/4 1/11/4
f 7/6/5 12/92/5 9/13/5
f 4/14/6 10/93/6 11/15/6
f 13/17/4 14/24/4 10/18/4
f 16/20/4 12/23/4 11/21/4
f 13/17/4 9/19/4 12/23/4
f 15/22/4 11/21/4 10/18/4
f 2/25/7 14/24/7 13/17/7
f 5/12/8 16/20/8 15/22/8
f 1/11/9 13/17/9 16/20/9
f 6/10/10 15/22/10 14/24/10
f 20/26/11 28/57/11 26/27/11
f 8/16/12 24/38/12 21/29/12
f 4/30/13 21/34/13 22/31/13
f 7/9/14 23/40/14 24/32/14
f 18/33/15 34/50/15 22/31/15
f 33/35/15 23/5/15 22/36/15
f 18/28/15 21/29/15 24/38/15
f 20/39/15 24/32/15 23/40/15
f 19/44/36 37/80/36 39/45/36
f 35/47/15 36/94/15 29/48/15
f 32/53/37 28/95/37 20/39/37
f 31/56/15 32/96/15 30/49/15
f 28/57/15 32/96/15 31/56/15
f 19/58/24 33/65/24 34/59/24
f 25/61/25 36/64/25 35/62/25
f 25/61/38 17/60/38 34/59/38
f 27/63/39 35/62/39 33/65/39
f 38/66/40 40/73/40 44/67/40
f 27/69/15 39/97/15 40/70/15
f 17/72/41 25/98/41 40/73/41
f 17/74/30 38/78/30 37/75/30
f 44/67/31 48/99/31 46/77/31
f 38/78/32 42/87/32 41/79/32
f 37/80/42 41/100/42 43/81/42
f 40/70/34 39/97/34 43/82/34
f 45/84/5 46/101/5 48/85/5
f 42/87/4 46/101/4 45/84/4
f 43/81/35 41/100/35 45/88/35
f 43/82/15 47/102/15 48/90/15
