# Blender 4.0.2
# www.blender.org
o SiloGeneric
v 0.000000 -1.100000 -1.000000
v 0.000000 1.500000 -1.000000
v 0.707107 -1.100000 -0.707107
v 0.707107 1.500000 -0.707107
v 1.000000 -1.100000 0.000000
v 1.000000 1.500000 0.000000
v 0.707107 -1.100000 0.707107
v 0.707107 1.500000 0.707107
v 0.000000 -1.100000 1.000000
v 0.000000 1.500000 1.000000
v -0.707107 -1.100000 0.707107
v -0.707107 1.500000 0.707107
v -1.000000 -1.100000 0.000000
v -1.000000 1.500000 0.000000
v -0.707107 -1.100000 -0.707107
v -0.707107 1.500000 -0.707107
v 0.530330 1.925000 -0.530330
v 0.000000 1.925000 -0.750000
v 0.750000 1.925000 0.000000
v 0.530330 1.925000 0.530330
v 0.000000 1.925000 0.750000
v -0.530330 1.925000 0.530330
v -0.750000 1.925000 0.000000
v -0.530330 1.925000 -0.530330
v 0.265165 2.075000 -0.265165
v 0.000000 2.075000 -0.375000
v 0.375000 2.075000 0.000000
v 0.265165 2.075000 0.265165
v 0.000000 2.075000 0.375000
v -0.265165 2.075000 0.265165
v -0.375000 2.075000 0.000000
v -0.265165 2.075000 -0.265165
v 0.000000 -1.300000 -1.000000
v 0.707107 -1.300000 -0.707107
v 0.707107 1.700000 -0.707107
v 0.000000 1.700000 -1.000000
v 1.000000 -1.300000 0.000000
v 1.000000 1.700000 0.000000
v 0.707107 -1.300000 0.707107
v 0.707107 1.700000 0.707107
v 0.000000 -1.300000 1.000000
v 0.000000 1.700000 1.000000
v -0.707107 -1.300000 0.707107
v -0.707107 1.700000 0.707107
v -1.000000 -1.300000 0.000000
v -1.000000 1.700000 0.000000
v -0.707107 -1.300000 -0.707107
v -0.707107 1.700000 -0.707107
v -0.000000 -1.100000 -0.900000
v 0.636396 -1.100000 -0.636396
v 0.636396 1.500000 -0.636396
v -0.000000 1.500000 -0.900000
v 0.900000 -1.100000 0.000000
v 0.900000 1.500000 0.000000
v 0.636396 -1.100000 0.636396
v 0.636396 1.500000 0.636396
v -0.000000 -1.100000 0.900000
v -0.000000 1.500000 0.900000
v -0.636396 -1.100000 0.636396
v -0.636396 1.500000 0.636396
v -0.900000 -1.100000 0.000000
v -0.900000 1.500000 0.000000
v -0.636396 -1.100000 -0.636396
v -0.636396 1.500000 -0.636396
vn 0.3827 -0.0000 -0.9239
vn 0.9239 -0.0000 -0.3827
vn 0.9239 -0.0000 0.3827
vn 0.3827 -0.0000 0.9239
vn -0.3827 -0.0000 0.9239
vn -0.9239 -0.0000 0.3827
vn -0.2670 0.7163 0.6447
vn -0.9239 -0.0000 -0.3827
vn -0.3827 -0.0000 -0.9239
vn -0.0000 -1.0000 -0.0000
vn 0.1520 0.9177 0.3671
vn -0.2670 0.7163 -0.6447
vn 0.2670 0.7163 -0.6447
vn 0.6447 0.7163 0.2670
vn -0.6447 0.7163 0.2670
vn 0.2670 0.7163 0.6447
vn -0.6447 0.7163 -0.2670
vn 0.6447 0.7163 -0.2670
vn -0.0000 1.0000 -0.0000
vn 0.3671 0.9177 -0.1520
vn -0.3671 0.9177 -0.1520
vn -0.1520 0.9177 0.3671
vn 0.3671 0.9177 0.1520
vn 0.1520 0.9177 -0.3671
vn -0.1520 0.9177 -0.3671
vn -0.3671 0.9177 0.1520
vt 0.472696 0.500000
vt 0.015637 0.621091
vt 0.015637 0.500000
vt 0.472696 0.621091
vt 0.015637 0.742181
vt 0.472696 0.742181
vt 0.015637 0.863272
vt 0.472696 0.863272
vt 0.015637 0.984363
vt 0.472696 0.015637
vt 0.015637 0.136728
vt 0.015637 0.015637
vt 0.472696 0.136728
vt 0.015637 0.257819
vt 0.561680 0.168485
vt 0.685007 0.125320
vt 0.613654 0.196674
vt 0.472696 0.257819
vt 0.015637 0.378909
vt 0.472696 0.378909
vt 0.880191 0.664157
vt 0.785053 0.893840
vt 0.555370 0.798702
vt 0.789779 0.123720
vt 0.714098 0.190087
vt 0.688870 0.123720
vt 0.672052 0.434946
vt 0.789779 0.378262
vt 0.806597 0.434946
vt 0.916969 0.333498
vt 0.793642 0.376662
vt 0.864996 0.305309
vt 0.821831 0.073347
vt 0.864996 0.196674
vt 0.793642 0.125320
vt 0.555370 0.183719
vt 0.612054 0.301446
vt 0.555370 0.318264
vt 0.806597 0.067037
vt 0.672052 0.067037
vt 0.656818 0.428636
vt 0.613654 0.305309
vt 0.685007 0.376662
vt 0.923279 0.318264
vt 0.866596 0.200537
vt 0.923279 0.183719
vt 0.678421 0.276219
vt 0.800229 0.225764
vt 0.866596 0.301446
vt 0.714098 0.311895
vt 0.678421 0.225764
vt 0.764552 0.190087
vt 0.800229 0.276219
vt 0.688870 0.378262
vt 0.764552 0.311895
vt 0.612054 0.200537
vt 0.625647 0.544159
vt 0.555370 0.664157
vt 0.530509 0.639297
vt 0.846692 0.453497
vt 0.941830 0.358359
vt 0.785053 0.533861
vt 0.650508 0.569019
vt 0.650508 0.533861
vt 0.958438 0.318264
vt 0.958438 0.183719
vt 0.905052 0.639297
vt 0.785053 0.569019
vt 0.809914 0.544159
vt 0.941830 0.143624
vt 0.846692 0.048486
vt 0.915349 0.798702
vt 0.915349 0.664157
vt 0.806597 0.031878
vt 0.672052 0.031878
vt 0.809914 0.918701
vt 0.880191 0.798702
vt 0.905052 0.823563
vt 0.631957 0.048486
vt 0.536820 0.143624
vt 0.650508 0.928999
vt 0.785053 0.928999
vt 0.520212 0.183719
vt 0.520212 0.318264
vt 0.530509 0.823563
vt 0.650508 0.893840
vt 0.625647 0.918701
vt 0.536820 0.358359
vt 0.631957 0.453497
vt 0.520212 0.664157
vt 0.520212 0.798702
vt 0.672052 0.470104
vt 0.806597 0.470104
vt 0.523782 0.623055
vt 0.862933 0.460224
vt 0.948557 0.374600
vt 0.778326 0.517620
vt 0.657235 0.517620
vt 0.974679 0.190446
vt 0.826155 0.537431
vt 0.948557 0.127383
vt 0.862933 0.041759
vt 0.931590 0.791975
vt 0.931590 0.670884
vt 0.678779 0.015637
vt 0.911779 0.839804
vt 0.615716 0.041759
vt 0.530092 0.127383
vt 0.657235 0.945240
vt 0.778326 0.945240
vt 0.503971 0.311537
vt 0.609406 0.925428
vt 0.530092 0.374600
vt 0.615716 0.460224
vt 0.503971 0.670884
vt 0.503971 0.791975
vt 0.799870 0.486345
vt 0.472696 0.984363
vt 0.656818 0.073347
vt 0.821831 0.428636
vt 0.916969 0.168485
vt 0.561680 0.333498
vt 0.609406 0.537431
vt 0.974679 0.311537
vt 0.911779 0.623055
vt 0.799870 0.015637
vt 0.826155 0.925428
vt 0.503971 0.190446
vt 0.523782 0.839804
vt 0.678779 0.486345
s 0
f 52/1/1 50/2/1 49/3/1
f 51/4/2 53/5/2 50/2/2
f 54/6/3 55/7/3 53/5/3
f 56/8/4 57/9/4 55/7/4
f 58/10/5 59/11/5 57/12/5
f 60/13/6 61/14/6 59/11/6
f 44/15/7 21/16/7 22/17/7
f 62/18/8 63/19/8 61/14/8
f 64/20/9 49/3/9 63/19/9
f 39/21/10 43/22/10 47/23/10
f 20/24/11 29/25/11 21/26/11
f 48/27/12 18/28/12 36/29/12
f 35/30/13 18/31/13 17/32/13
f 40/33/14 19/34/14 20/35/14
f 44/36/15 23/37/15 46/38/15
f 40/39/16 21/26/16 42/40/16
f 48/41/17 23/42/17 24/43/17
f 35/44/18 19/45/18 38/46/18
f 31/47/19 29/25/19 27/48/19
f 17/49/20 27/48/20 19/45/20
f 23/42/21 32/50/21 24/43/21
f 21/16/22 30/51/22 22/17/22
f 19/34/23 28/52/23 20/35/23
f 18/31/24 25/53/24 17/32/24
f 24/54/25 26/55/25 18/28/25
f 22/56/26 31/47/26 23/37/26
f 3/57/1 33/58/1 1/59/1
f 2/60/1 35/30/1 4/61/1
f 5/62/2 34/63/2 3/64/2
f 4/65/2 38/46/2 6/66/2
f 7/67/3 37/68/3 5/69/3
f 6/70/3 40/33/3 8/71/3
f 9/72/4 39/21/4 7/73/4
f 8/74/4 42/40/4 10/75/4
f 11/76/5 41/77/5 9/78/5
f 10/79/5 44/15/5 12/80/5
f 13/81/6 43/22/6 11/82/6
f 12/83/6 46/38/6 14/84/6
f 15/85/8 45/86/8 13/87/8
f 14/88/8 48/41/8 16/89/8
f 1/90/9 47/23/9 15/91/9
f 16/92/9 36/29/9 2/93/9
f 49/94/19 3/57/19 1/59/19
f 52/95/10 4/61/10 51/96/10
f 53/97/19 3/64/19 50/98/19
f 54/99/10 4/65/10 6/66/10
f 53/100/19 7/67/19 5/69/19
f 54/101/10 8/71/10 56/102/10
f 57/103/19 7/73/19 55/104/19
f 58/105/10 8/74/10 10/75/10
f 57/106/19 11/76/19 9/78/19
f 58/107/10 12/80/10 60/108/10
f 61/109/19 11/82/19 59/110/19
f 62/111/10 12/83/10 14/84/10
f 61/112/19 15/85/19 13/87/19
f 62/113/10 16/89/10 64/114/10
f 49/115/19 15/91/19 63/116/19
f 52/117/10 16/92/10 2/93/10
f 52/1/1 51/4/1 50/2/1
f 51/4/2 54/6/2 53/5/2
f 54/6/3 56/8/3 55/7/3
f 56/8/4 58/118/4 57/9/4
f 58/10/5 60/13/5 59/11/5
f 60/13/6 62/18/6 61/14/6
f 44/15/7 42/119/7 21/16/7
f 62/18/8 64/20/8 63/19/8
f 64/20/9 52/1/9 49/3/9
f 47/23/10 33/58/10 34/63/10
f 34/63/10 37/68/10 39/21/10
f 39/21/10 41/77/10 43/22/10
f 43/22/10 45/86/10 47/23/10
f 47/23/10 34/63/10 39/21/10
f 20/24/11 28/52/11 29/25/11
f 48/27/12 24/54/12 18/28/12
f 35/30/13 36/120/13 18/31/13
f 40/33/14 38/121/14 19/34/14
f 44/36/15 22/56/15 23/37/15
f 40/39/16 20/24/16 21/26/16
f 48/41/17 46/122/17 23/42/17
f 35/44/18 17/49/18 19/45/18
f 27/48/19 25/53/19 26/55/19
f 26/55/19 32/50/19 31/47/19
f 31/47/19 30/51/19 29/25/19
f 29/25/19 28/52/19 27/48/19
f 27/48/19 26/55/19 31/47/19
f 17/49/20 25/53/20 27/48/20
f 23/42/21 31/47/21 32/50/21
f 21/16/22 29/25/22 30/51/22
f 19/34/23 27/48/23 28/52/23
f 18/31/24 26/55/24 25/53/24
f 24/54/25 32/50/25 26/55/25
f 22/56/26 30/51/26 31/47/26
f 3/57/1 34/63/1 33/58/1
f 2/60/1 36/120/1 35/30/1
f 5/62/2 37/68/2 34/63/2
f 4/65/2 35/44/2 38/46/2
f 7/67/3 39/21/3 37/68/3
f 6/70/3 38/121/3 40/33/3
f 9/72/4 41/77/4 39/21/4
f 8/74/4 40/39/4 42/40/4
f 11/76/5 43/22/5 41/77/5
f 10/79/5 42/119/5 44/15/5
f 13/81/6 45/86/6 43/22/6
f 12/83/6 44/36/6 46/38/6
f 15/85/8 47/23/8 45/86/8
f 14/88/8 46/122/8 48/41/8
f 1/90/9 33/58/9 47/23/9
f 16/92/9 48/27/9 36/29/9
f 49/94/19 50/123/19 3/57/19
f 52/95/10 2/60/10 4/61/10
f 53/97/19 5/62/19 3/64/19
f 54/99/10 51/124/10 4/65/10
f 53/100/19 55/125/19 7/67/19
f 54/101/10 6/70/10 8/71/10
f 57/103/19 9/72/19 7/73/19
f 58/105/10 56/126/10 8/74/10
f 57/106/19 59/127/19 11/76/19
f 58/107/10 10/79/10 12/80/10
f 61/109/19 13/81/19 11/82/19
f 62/111/10 60/128/10 12/83/10
f 61/112/19 63/129/19 15/85/19
f 62/113/10 14/88/10 16/89/10
f 49/115/19 1/90/19 15/91/19
f 52/117/10 64/130/10 16/92/10
